<svg width="24" height="23" viewBox="0 0 24 23" fill="none" xmlns="http://www.w3.org/2000/svg">
<path d="M6.5 0.916992C4.70495 0.994983 3.01371 1.78025 1.79579 3.10122C0.577864 4.4222 -0.0677465 6.17152 4.06709e-06 7.96699C4.06709e-06 12.514 4.786 17.48 8.8 20.847C9.69622 21.6001 10.8294 22.013 12 22.013C13.1706 22.013 14.3038 21.6001 15.2 20.847C19.214 17.48 24 12.514 24 7.96699C24.0678 6.17152 23.4221 4.4222 22.2042 3.10122C20.9863 1.78025 19.2951 0.994983 17.5 0.916992M6.5 0.916992L6.49767 1.06697C6.49915 1.067 6.50062 1.06702 6.50209 1.06704M6.5 0.916992L6.50652 1.06685C6.50504 1.06691 6.50357 1.06698 6.50209 1.06704M6.5 0.916992C7.62605 0.934507 8.72754 1.24885 9.69324 1.82826C10.6089 2.37768 11.3718 3.14698 11.9133 4.06523C11.8983 4.09149 11.8834 4.11787 11.8688 4.14435L12 4.21699L12.1312 4.14435C12.1166 4.11787 12.1017 4.09149 12.0867 4.06523C12.6282 3.14698 13.3911 2.37768 14.3068 1.82826C15.2725 1.24885 16.374 0.934507 17.5 0.916992M6.50209 1.06704C4.74828 1.14441 3.09612 1.91215 1.90607 3.2029C0.71501 4.49474 0.0836414 6.20547 0.149897 7.96134L0.150111 7.96699H0.150004C0.150004 10.1911 1.32261 12.5368 3.0141 14.7586C4.7029 16.977 6.89361 19.0521 8.8964 20.7321L8.89651 20.7322C9.7657 21.4626 10.8647 21.863 12 21.863C13.1353 21.863 14.2343 21.4626 15.1035 20.7322L15.1036 20.7321C17.1064 19.0521 19.2971 16.977 20.9859 14.7586C22.6774 12.5368 23.85 10.1911 23.85 7.96699V7.96133L23.8501 7.96134C23.9164 6.20547 23.285 4.49474 22.0939 3.2029C20.9039 1.91215 19.2517 1.14441 17.4979 1.06704M6.50209 1.06704C7.60021 1.0849 8.67427 1.39181 9.61607 1.95689C10.5591 2.52272 11.3362 3.32739 11.8688 4.28963L12 4.52675L12.1312 4.28963C12.6638 3.32739 13.4409 2.52272 14.3839 1.95689C15.3257 1.39181 16.3998 1.0849 17.4979 1.06704M17.4979 1.06704C17.4994 1.06702 17.5009 1.067 17.5023 1.06697L17.5 0.916992M17.4979 1.06704C17.4964 1.06698 17.495 1.06691 17.4935 1.06685L17.5 0.916992M14.065 19.3868L14.0116 19.4317C13.4486 19.9059 12.7361 20.1659 12 20.1659C11.264 20.1659 10.5516 19.9059 9.98859 19.4319C9.98852 19.4318 9.98845 19.4318 9.98838 19.4317L10.085 19.317C4.947 15.006 2 10.87 2 7.96699L14.065 19.3868ZM14.065 19.3868V19.3829C16.6151 17.2395 18.6276 15.1356 20.0064 13.2005C21.391 11.2575 22.1486 9.46796 22.15 7.97106C22.2194 6.66763 21.7711 5.38949 20.9026 4.4149C20.0333 3.43931 18.8135 2.84704 17.5092 2.76727L17.5 2.76671L17.4908 2.76727C16.1866 2.84704 14.9667 3.43931 14.0974 4.4149C13.229 5.38944 12.7807 6.66749 12.85 7.97085C12.849 8.19489 12.7595 8.40954 12.601 8.56803C12.4416 8.72744 12.2254 8.81699 12 8.81699C11.7746 8.81699 11.5584 8.72744 11.399 8.56803C11.2405 8.40954 11.151 8.19489 11.15 7.97085C11.2193 6.66749 10.771 5.38944 9.90263 4.4149C9.03329 3.43931 7.81345 2.84704 6.50916 2.76727L6.5 2.76671L6.49085 2.76727C5.18656 2.84704 3.96672 3.43931 3.09738 4.4149C2.22893 5.38949 1.78065 6.66762 1.85001 7.97105L14.065 19.3868Z" fill="#292D32" stroke="#F9F9F9" stroke-width="0.3"/>
</svg>
